<svg xmlns="http://www.w3.org/2000/svg" version="1.1" xmlns:xlink="http://www.w3.org/1999/xlink" xmlns:svgjs="http://svgjs.dev/svgjs" width="100%" height="100%" viewBox="0 0 1000 600"><rect width="1000" height="600" x="0" y="0" fill="pink"/><g><circle r="166.66666666666666" cx="394.7724253336588" cy="319.20268452053483" fill="pink" transform="matrix(0.9592228632566571,0,0,0.9592228632566571,-3.82506817344796,-6.186539707878964)"/><path d="M166.70015591300188 393.47978937648077L166.70015591300188 393.47978937648077Q162.4613827797676 393.47978937648077 156.41538079127838 393.2497784312666Q150.40223750924832 393.0197674860523 144.81625741118762 391.93543017289926Q139.2631360195861 390.8839515662055 136.4372872640966 388.51812470114453L136.4372872640966 388.51812470114453Q135.0243628863518 387.1052003233998 134.66291711530084 384.7393734583387Q134.30147134424985 382.37354659327775 134.30147134424985 381.1906331607473L134.30147134424985 381.1906331607473Q134.30147134424985 376.19610977895184 135.94440666720888 366.404215254116Q137.62020069662708 356.5794620228211 140.08460368106563 343.92886003603655Q142.58186537196337 331.2453993427928 145.4077141274529 317.90476452036546Q148.2664215894016 304.531270991479 150.73082457384015 292.2092560692863Q153.22808626473787 279.92009985355276 154.87102158769687 270.58822721914544Q156.5468156171151 261.223495878279 156.5468156171151 257.214733690259L156.5468156171151 257.214733690259Q156.5468156171151 256.03182025772844 155.8239240750131 255.67037448667747Q155.1338912393703 255.3089287156265 152.76806437430935 255.07891777041223L152.76806437430935 255.07891777041223Q150.6322484544626 254.84890682519796 149.08788925088112 254.71747199936124Q147.5435300472996 254.6188958799837 147.5435300472996 252.94310185056548L147.5435300472996 252.94310185056548Q147.5435300472996 249.62437249818825 153.6881081551664 248.7043287173312Q159.86554496949233 247.75142623001494 166.96302556467535 247.75142623001494L166.96302556467535 247.75142623001494Q168.3759499424201 247.75142623001494 170.01888526537914 248.2114481204435Q171.69467929479734 248.7043287173312 171.69467929479734 250.57727498550452L171.69467929479734 250.57727498550452Q171.69467929479734 251.760188418035 171.20179869790962 252.84452573118796Q170.7417768074811 253.89600433788172 170.51176586226683 255.07891777041223L170.51176586226683 255.07891777041223Q168.83597183284863 259.81057150053425 166.47014496778763 269.50388990599254Q164.1043181027266 279.19720831145077 161.50848029245137 290.79633169154147Q158.9126424821761 302.3954550716322 156.5468156171151 313.4031217354577Q154.18098875205408 324.4107883992832 152.76806437430935 331.9682908848948L152.76806437430935 331.9682908848948Q150.40223750924832 342.61451177766924 148.49643253461585 353.72075456087236Q146.59062755998337 364.8598560505345 146.59062755998337 373.83028291389087L146.59062755998337 373.83028291389087Q146.59062755998337 375.96609883373753 146.7220623858201 377.87190380837Q146.85349721165682 379.74485007654334 147.0835081568711 381.6506550511758L147.0835081568711 381.6506550511758Q147.31351910208537 383.5564600258083 150.73082457384015 384.60793863250206Q154.18098875205408 385.6594172391958 158.78120765633938 386.0208630102468Q163.41428526708384 386.38230878129775 167.65305840031812 386.51374360713453Q171.9246902400116 386.61231972651206 173.7976365081849 386.61231972651206L173.7976365081849 386.61231972651206Q179.97507332251084 386.61231972651206 187.07255391769385 386.2508739554611Q194.17003451287684 385.92228689086926 201.95754794370265 384.969384403553L201.95754794370265 384.969384403553Q208.10212605156943 384.2464928614511 213.3266603785791 382.60355753849205Q218.51833599912965 380.92776350907377 220.88416286419064 380.237730673431L220.88416286419064 380.237730673431L221.37704346107836 380.237730673431Q223.24998972925164 380.237730673431 223.24998972925164 381.88066599639L223.24998972925164 381.88066599639Q223.24998972925164 384.0164819162368 217.82830316348685 386.0208630102468Q212.37375789126287 388.0252441042568 203.63334197312085 389.7996142530526Q194.86006734851964 391.5739844018483 185.03531411722463 392.52688688916453Q175.24341959238885 393.47978937648077 166.70015591300188 393.47978937648077ZM294.9476872231836 391.5739844018483L294.9476872231836 391.5739844018483Q288.3102285184292 391.5739844018483 284.99149916605194 386.84233067172636Q281.70562852013387 382.1106769416043 280.6212912069809 375.86752271436Q279.56981260028715 369.59150978065657 279.56981260028715 364.6298451053202L279.56981260028715 364.6298451053202Q279.56981260028715 359.63532172352484 280.1612693165524 354.80509187402527Q280.75272603281763 349.94200331806655 281.44275886846043 345.2103495879445L281.44275886846043 345.2103495879445Q279.07693200339946 348.2990679951075 274.8381588701651 353.85218938670903Q270.56652703047166 359.40531077831054 265.1448404647069 365.9113346572283Q259.6902951924829 372.417358536146 254.00573897504466 378.233349579421Q248.32118275760644 384.0164819162368 242.99807231121918 387.69665703966507Q237.67496186483191 391.3439734566341 233.89621062202616 391.3439734566341L233.89621062202616 391.3439734566341Q230.5774812696489 391.3439734566341 229.75601360816938 388.2881137559302Q228.93454594668987 385.1993953487673 228.93454594668987 382.83356848370636L228.93454594668987 382.83356848370636Q228.93454594668987 372.18734759093184 233.20617778638336 360.3582132656268Q237.44495091961767 348.5290789403218 241.9465937045254 339.06577148007773L241.9465937045254 339.06577148007773Q243.1295071370559 336.4699336698026 245.4953340021169 331.9682908848948Q247.8611608671779 327.4666480999871 251.04845539371843 322.73499436986503Q254.2357499202589 318.003340639743 257.7844902178504 314.9474809390392Q261.3332305154419 311.8587625318762 264.88197081303343 312.3187844223048L264.88197081303343 312.3187844223048Q267.5106673297679 310.6758490993458 269.9750703142064 309.3615008409785Q272.47233200510414 308.0800112890705 275.5281917058079 308.0800112890705L275.5281917058079 308.0800112890705Q277.4339966804404 308.0800112890705 281.80420463951145 309.262924721601Q286.1744125985824 310.4458381541315 288.0802175732149 310.90586004456003L288.0802175732149 310.90586004456003Q289.03312006053113 309.03291377638675 290.90606632870447 308.0800112890705Q292.81187130333694 307.1271088017543 294.7176762779694 307.1271088017543L294.7176762779694 307.1271088017543Q296.59062254614264 307.1271088017543 297.3135140882447 307.3571197469685L297.3135140882447 307.3571197469685Q298.26641657556087 306.89709785654 298.7264384659894 306.89709785654L298.7264384659894 306.89709785654Q300.13936284373415 306.89709785654 300.6322434406219 308.90147895055Q301.0922653310504 310.90586004456003 301.0922653310504 312.0887734770905L301.0922653310504 312.0887734770905Q301.0922653310504 315.1774918842535 300.36937378894845 317.5433187493145Q299.67934095330565 319.90914561437546 298.4964275207751 322.73499436986503L298.4964275207751 322.73499436986503Q297.5435250334589 325.100821234926 296.95206831719366 327.105202328936Q296.36061160092845 329.14244212940525 294.2247956810817 330.7853774523643L294.2247956810817 330.7853774523643Q292.58186035812264 339.29578242529203 291.7603926966431 347.93762222405655Q290.90606632870447 356.5794620228211 290.90606632870447 365.319877940963L290.90606632870447 365.319877940963Q290.90606632870447 368.408596348126 291.26751209975544 372.64736948136033Q291.6289578708064 376.91900132105377 293.40332801960216 380.237730673431Q295.1776981683979 383.5564600258083 298.95644941120366 383.5564600258083L298.95644941120366 383.5564600258083Q304.8710165738562 383.5564600258083 309.5040941846006 379.1533933602781Q314.1043130888859 374.7831854012071 317.1930314960489 370.774423213187L317.1930314960489 370.774423213187Q317.6530533864774 370.05153167108506 318.3759449285794 369.2300640096056Q319.06597776422217 368.408596348126 320.0188802515384 367.9157157512383L320.0188802515384 367.9157157512383L320.7417717936404 369.36149883544226Q320.7417717936404 371.72732570050323 318.3759449285794 375.0131963464213Q316.01011806351835 378.3319256987985 313.1514106015697 381.28920928012485Q310.3255618460802 384.2464928614511 308.4197568714477 385.6594172391958L308.4197568714477 385.6594172391958Q305.59390811595813 388.0252441042568 302.14374393774415 389.7996142530526Q298.7264384659894 391.5739844018483 294.9476872231836 391.5739844018483ZM241.9465937045254 381.6506550511758L241.9465937045254 381.6506550511758Q243.35951808227014 381.6506550511758 245.03531211168834 380.4677416186453Q246.67824743464737 379.28482818611474 247.63114992196364 378.3319256987985L247.63114992196364 378.3319256987985Q258.73739270516666 368.6386072933403 267.3792325039311 356.5794620228211Q276.02107230269564 344.5203167523017 282.39566135577667 331.5082689944662L282.39566135577667 331.5082689944662Q283.11855289787866 330.3253555619358 283.80858573352145 328.8795724777318Q284.5314772756234 327.4666480999871 284.7614882208377 326.05372372224224L284.7614882208377 326.05372372224224Q285.2543688177254 324.14791874760976 285.7143907081539 321.9135267083856Q286.1744125985824 319.6791346691613 286.43728225025586 317.7733296945288L286.43728225025586 317.7733296945288Q286.1744125985824 316.59041626199826 283.80858573352145 315.637513774682Q281.44275886846043 314.6846112873658 278.74834493880763 314.0931545711005Q276.02107230269564 313.50169785483524 274.8381588701651 313.50169785483524L274.8381588701651 313.50169785483524Q270.33651608525736 313.50169785483524 266.9192106135026 317.1818729782635Q263.46904643528865 320.8620481016917 261.1032195702277 324.14791874760976L261.1032195702277 324.14791874760976Q258.2773708147381 328.4195505873033 254.59719569130988 335.28702023727203Q250.94987927434087 342.15448988724074 247.49971509612692 349.843427198689Q244.0824096243721 357.5323645101373 241.8151588786887 364.6298451053202Q239.5807668394644 371.72732570050323 239.5807668394644 376.6889903758396L239.5807668394644 376.6889903758396Q239.5807668394644 377.87190380837 239.94221261051538 379.74485007654334Q240.30365838156638 381.6506550511758 241.9465937045254 381.6506550511758ZM366.8753956623299 392.29687594395034L366.8753956623299 392.29687594395034Q364.9695906876974 392.29687594395034 363.1952205389017 390.8839515662055Q361.4208503901059 389.47102718846077 361.4208503901059 387.335211268614L361.4208503901059 387.335211268614Q361.4208503901059 380.0077197282168 363.1952205389017 371.0044341584013Q364.9695906876974 362.0011485885858 367.3354175527584 352.8992868993928Q369.7012444178194 343.7974252101998 371.34417974077843 336.4699336698026L371.34417974077843 336.4699336698026Q369.47123347260515 340.01867396739397 364.9695906876974 346.62327396568935Q360.4679479027897 353.26073267044376 354.5533807401372 360.94966998189204Q348.63881357748465 368.6386072933403 342.3628006437812 375.60465306268657Q336.11964641653685 382.60355753849205 330.5336663184762 387.1052003233998Q324.9805449268747 391.5739844018483 321.2017936840689 391.5739844018483L321.2017936840689 391.5739844018483Q319.2959887094364 391.5739844018483 318.47452104795696 390.16106002410356Q317.6530533864774 388.74813564635883 317.6530533864774 387.1052003233998L317.6530533864774 387.1052003233998Q317.6530533864774 384.2464928614511 319.2959887094364 378.92338241506377Q320.9717827388547 373.60027196867657 323.20617477807895 367.3242590349731Q325.4734255237624 361.0811048077288 327.70781756298663 355.39654859029054Q329.94220960221094 349.71199237285225 330.8951120895272 345.93324113004655L330.8951120895272 345.93324113004655L334.673863332333 332.69118242699676L334.2138414419044 332.69118242699676Q333.49094989980244 332.69118242699676 332.6694822383229 332.198301830109Q331.8480145768434 331.7382799396805 331.8480145768434 330.7853774523643L331.8480145768434 330.7853774523643Q331.8480145768434 330.55536650715 331.9794494026802 330.3253555619358Q332.0780255220577 330.06248591026235 332.0780255220577 329.83247496504805L332.0780255220577 329.83247496504805Q333.2609389545882 325.100821234926 333.7538195514759 319.7777107885388Q334.2138414419044 314.4546003421516 336.7111031328022 310.6758490993458Q339.17550611724073 306.89709785654 345.58295387678095 306.89709785654L345.58295387678095 306.89709785654Q349.59171606480095 306.89709785654 349.59171606480095 310.90586004456003L349.59171606480095 310.90586004456003Q349.59171606480095 314.2245893969373 347.6859110901685 321.6835157631713Q345.81296482199514 329.14244212940525 343.0856921858832 337.8828580475473Q340.35841954977116 346.62327396568935 337.7625817394959 354.3122112771375Q335.1667439292207 362.0011485885858 333.9838304966902 366.04276948306506L333.9838304966902 366.04276948306506Q333.49094989980244 367.6857048060241 332.0780255220577 371.82590181988076Q330.6651011443129 375.96609883373753 330.6651011443129 377.6418928631558L330.6651011443129 377.6418928631558L330.8951120895272 378.1019147535843Q331.1251230347415 378.1019147535843 331.6180036316292 377.6418928631558L331.6180036316292 377.6418928631558Q341.0813110918732 371.72732570050323 349.23027029375 361.311115752943Q357.4120882020859 350.8949058053828 364.1481230262179 339.29578242529203Q370.88415785034994 327.6966590452013 375.84582252568623 318.2333515849573L375.84582252568623 318.2333515849573Q375.6158115804719 317.05043815242675 375.6158115804719 316.13039437156976Q375.6158115804719 315.1774918842535 375.6158115804719 314.2245893969373L375.6158115804719 314.2245893969373Q375.6158115804719 309.03291377638675 379.986019539543 307.1271088017543Q384.356227498614 305.2213038271218 388.6278593383074 305.2213038271218L388.6278593383074 305.2213038271218Q390.04078371605226 305.2213038271218 391.71657774547043 305.7141844240095Q393.3595130684294 306.17420631443804 393.3595130684294 308.0800112890705L393.3595130684294 308.0800112890705Q393.3595130684294 309.03291377638675 392.99806729737844 309.8543814378662Q392.6366215263275 310.6758490993458 392.1765996358989 311.628751586662L392.1765996358989 311.628751586662Q387.9049677962055 319.90914561437546 384.71767326966494 328.4195505873033Q381.53037874312446 336.92995556023106 378.70452998763494 345.93324113004655L378.70452998763494 345.93324113004655Q377.5216165551044 349.94200331806655 375.6158115804719 356.21801625177Q373.71000660583945 362.49402918547355 372.42851705393144 368.770042119177Q371.1141687955642 375.0131963464213 371.1141687955642 379.28482818611474L371.1141687955642 379.28482818611474Q371.1141687955642 380.92776350907377 371.70562551182945 382.965003309543Q372.2970822280947 384.969384403553 374.4328981479415 384.969384403553L374.4328981479415 384.969384403553Q376.3387031225739 384.969384403553 379.39456282327774 382.7021336578696Q382.48328123044064 380.4677416186453 385.9005867021954 377.37902321148226Q389.35075088040946 374.3231635107785 392.0451648100622 372.05591276509506Q394.7724374461742 369.82152072587076 395.72533993349043 369.82152072587076L395.72533993349043 369.82152072587076Q396.4482314755924 369.82152072587076 396.4482314755924 371.0044341584013L396.4482314755924 371.0044341584013Q396.4482314755924 371.72732570050323 395.95535087870473 373.2388261976256Q395.4953289882762 374.7831854012071 394.0824046105314 375.96609883373753L394.0824046105314 375.96609883373753Q391.453708093797 378.3319256987985 386.72205436367494 382.242111767441Q381.990400633553 386.15229783608356 376.6672901871657 389.2081575367873Q371.34417974077843 392.29687594395034 366.8753956623299 392.29687594395034ZM398.09116679855146 394.2026809185828L398.09116679855146 394.2026809185828Q396.185361823919 394.2026809185828 395.72533993349043 392.75689783437883L395.72533993349043 392.75689783437883Q396.67824242080667 390.6539406209913 397.6311449081229 388.51812470114453Q398.55118868897995 386.38230878129775 399.27408023108194 384.0164819162368L399.27408023108194 384.0164819162368Q403.54571207077544 371.4644560488298 406.96301754253017 358.71527794266774Q410.380323014285 345.93324113004655 413.6990523666622 333.15120431742525L413.6990523666622 333.15120431742525L415.6048573412947 325.82371277702805Q415.6048573412947 325.100821234926 413.92906331187646 325.2322560607628Q412.2861279889174 325.3308321801403 412.0561170437032 324.6407993444975L412.0561170437032 324.6407993444975Q413.6990523666622 320.36916750480407 415.0134006250294 315.998959545733Q416.2948901769375 311.628751586662 417.9706842063557 307.3571197469685L417.9706842063557 307.3571197469685Q418.66071704199845 305.48417347879524 422.4723269912634 303.808379449377Q426.2510782340692 302.165444126418 428.1240245022425 302.165444126418L428.1240245022425 302.165444126418Q431.4427538546197 302.165444126418 431.4427538546197 305.2213038271218L431.4427538546197 305.2213038271218Q431.4427538546197 306.89709785654 429.89839465103825 311.990197357713Q428.38689415391593 317.05043815242675 426.11964340823243 323.81933168301805Q423.8852513690082 330.55536650715 421.38798967811044 337.52141227649633Q418.9235866936719 344.5203167523017 416.8863468932027 350.3034490891175Q414.8819657991927 356.08658142593333 413.92906331187646 359.17529983309635L413.92906331187646 359.17529983309635Q418.20069515156996 350.6648948601685 424.11526231422243 340.70870680303676Q430.02982947687497 330.7853774523643 437.127310072058 321.7820918825488Q444.22479066724094 312.81166501919256 452.2751737497402 307.58713069218277L452.2751737497402 307.58713069218277Q454.87101156001546 305.94419536922373 457.0068274798622 305.94419536922373L457.0068274798622 305.94419536922373Q461.96849215519853 305.94419536922373 464.3343190202595 311.03729487039675Q466.70014588532047 316.13039437156976 466.70014588532047 320.13915655958976L466.70014588532047 320.13915655958976Q466.70014588532047 321.5520809373345 465.97725434321853 324.50936451866085Q465.2872215075757 327.4666480999871 463.9728732492085 329.9639097908847Q462.69138369730047 332.4283127753233 460.78557872266794 332.4283127753233L460.78557872266794 332.4283127753233Q459.3726543449232 332.4283127753233 458.87977374803546 330.193920736099Q458.41975185760697 327.9595286968747 457.9597299671784 325.0022451155485Q457.46684937029073 322.04496153422224 456.28393593776025 319.7777107885388Q455.10102250522976 317.5433187493145 452.50518469495444 317.5433187493145L452.50518469495444 317.5433187493145Q448.7264334521487 317.5433187493145 443.9947797220267 322.14353765359976Q439.2631259919047 326.7766152643443 434.30146131656846 333.8740958595273Q429.306937934773 340.9715764547102 424.7067190304877 348.8905247113728Q420.10650012620243 356.80947296803527 416.65633594798845 363.4469316727898Q413.23903047623367 370.05153167108506 411.82610609848894 373.60027196867657L411.82610609848894 373.60027196867657Q412.0561170437032 374.3231635107785 412.0561170437032 375.73608788852334L412.0561170437032 375.73608788852334Q412.0561170437032 378.3319256987985 410.9717797305502 381.7820898770125Q409.92030112385646 385.1993953487673 408.737387691326 387.7952331590426L408.737387691326 387.7952331590426Q408.737387691326 389.2081575367873 406.7330065973159 390.6539406209913Q404.728625503306 392.06686499873604 402.09992898657146 393.1183436054298Q399.5040911762962 394.2026809185828 398.09116679855146 394.2026809185828ZM530.3474602967533 391.5739844018483L530.3474602967533 391.5739844018483Q523.7100015919988 391.5739844018483 520.3912722396216 386.84233067172636Q517.1054015937035 382.1106769416043 516.0210642805505 375.86752271436Q514.9695856738567 369.59150978065657 514.9695856738567 364.6298451053202L514.9695856738567 364.6298451053202Q514.9695856738567 359.63532172352484 515.561042390122 354.80509187402527Q516.1524991063873 349.94200331806655 516.8425319420301 345.2103495879445L516.8425319420301 345.2103495879445Q514.476705076969 348.2990679951075 510.2379319437348 353.85218938670903Q505.96630010404124 359.40531077831054 500.5446135382765 365.9113346572283Q495.0900682660525 372.417358536146 489.40551204861424 378.233349579421Q483.720955831176 384.0164819162368 478.39784538478875 387.69665703966507Q473.0747349384015 391.3439734566341 469.29598369559574 391.3439734566341L469.29598369559574 391.3439734566341Q465.97725434321853 391.3439734566341 465.155786681739 388.2881137559302Q464.3343190202595 385.1993953487673 464.3343190202595 382.83356848370636L464.3343190202595 382.83356848370636Q464.3343190202595 372.18734759093184 468.60595085995294 360.3582132656268Q472.84472399318724 348.5290789403218 477.346366778095 339.06577148007773L477.346366778095 339.06577148007773Q478.5292802106255 336.4699336698026 480.8951070756865 331.9682908848948Q483.26093394074746 327.4666480999871 486.448228467288 322.73499436986503Q489.63552299382854 318.003340639743 493.18426329142005 314.9474809390392Q496.73300358901156 311.8587625318762 500.28174388660307 312.3187844223048L500.28174388660307 312.3187844223048Q502.9104404033375 310.6758490993458 505.3748433877761 309.3615008409785Q507.8721050786737 308.0800112890705 510.9279647793776 308.0800112890705L510.9279647793776 308.0800112890705Q512.8337697540101 308.0800112890705 517.203977713081 309.262924721601Q521.574185672152 310.4458381541315 523.4799906467846 310.90586004456003L523.4799906467846 310.90586004456003Q524.4328931341007 309.03291377638675 526.305839402274 308.0800112890705Q528.2116443769065 307.1271088017543 530.117449351539 307.1271088017543L530.117449351539 307.1271088017543Q531.9903956197123 307.1271088017543 532.7132871618143 307.3571197469685L532.7132871618143 307.3571197469685Q533.6661896491305 306.89709785654 534.126211539559 306.89709785654L534.126211539559 306.89709785654Q535.5391359173037 306.89709785654 536.0320165141915 308.90147895055Q536.4920384046201 310.90586004456003 536.4920384046201 312.0887734770905L536.4920384046201 312.0887734770905Q536.4920384046201 315.1774918842535 535.769146862518 317.5433187493145Q535.0791140268752 319.90914561437546 533.8962005943448 322.73499436986503L533.8962005943448 322.73499436986503Q532.9432981070286 325.100821234926 532.3518413907633 327.105202328936Q531.760384674498 329.14244212940525 529.6245687546512 330.7853774523643L529.6245687546512 330.7853774523643Q527.9816334316922 339.29578242529203 527.1601657702128 347.93762222405655Q526.305839402274 356.5794620228211 526.305839402274 365.319877940963L526.305839402274 365.319877940963Q526.305839402274 368.408596348126 526.667285173325 372.64736948136033Q527.028730944376 376.91900132105377 528.8031010931718 380.237730673431Q530.5774712419675 383.5564600258083 534.3562224847733 383.5564600258083L534.3562224847733 383.5564600258083Q540.2707896474259 383.5564600258083 544.9038672581702 379.1533933602781Q549.5040861624555 374.7831854012071 552.5928045696185 370.774423213187L552.5928045696185 370.774423213187Q553.0528264600471 370.05153167108506 553.775718002149 369.2300640096056Q554.4657508377919 368.408596348126 555.418653325108 367.9157157512383L555.418653325108 367.9157157512383L556.14154486721 369.36149883544226Q556.14154486721 371.72732570050323 553.775718002149 375.0131963464213Q551.409891137088 378.3319256987985 548.5511836751393 381.28920928012485Q545.7253349196498 384.2464928614511 543.8195299450173 385.6594172391958L543.8195299450173 385.6594172391958Q540.9936811895278 388.0252441042568 537.5435170113138 389.7996142530526Q534.126211539559 391.5739844018483 530.3474602967533 391.5739844018483ZM477.346366778095 381.6506550511758L477.346366778095 381.6506550511758Q478.7592911558398 381.6506550511758 480.43508518525795 380.4677416186453Q482.078020508217 379.28482818611474 483.0309229955332 378.3319256987985L483.0309229955332 378.3319256987985Q494.1371657787363 368.6386072933403 502.7790055775007 356.5794620228211Q511.4208453762652 344.5203167523017 517.7954344293463 331.5082689944662L517.7954344293463 331.5082689944662Q518.5183259714482 330.3253555619358 519.208358807091 328.8795724777318Q519.931250349193 327.4666480999871 520.1612612944073 326.05372372224224L520.1612612944073 326.05372372224224Q520.654141891295 324.14791874760976 521.1141637817236 321.9135267083856Q521.574185672152 319.6791346691613 521.8370553238256 317.7733296945288L521.8370553238256 317.7733296945288Q521.574185672152 316.59041626199826 519.208358807091 315.637513774682Q516.8425319420301 314.6846112873658 514.1481180123773 314.0931545711005Q511.4208453762652 313.50169785483524 510.2379319437348 313.50169785483524L510.2379319437348 313.50169785483524Q505.73628915882705 313.50169785483524 502.3189836870722 317.1818729782635Q498.8688195088582 320.8620481016917 496.50299264379726 324.14791874760976L496.50299264379726 324.14791874760976Q493.6771438883078 328.4195505873033 489.9969687648795 335.28702023727203Q486.3496523479105 342.15448988724074 482.8994881696965 349.843427198689Q479.4821826979417 357.5323645101373 477.2149319522582 364.6298451053202Q474.98053991303397 371.72732570050323 474.98053991303397 376.6889903758396L474.98053991303397 376.6889903758396Q474.98053991303397 377.87190380837 475.34198568408493 379.74485007654334Q475.70343145513596 381.6506550511758 477.346366778095 381.6506550511758ZM575.988203568555 290.336309801113L575.5281816781267 290.336309801113Q575.0681597876979 290.336309801113 575.0681597876979 289.8434292042253L575.0681597876979 289.8434292042253Q577.1711170010856 285.83466701620523 580.2598354082486 280.150110798767Q583.3485538154115 274.4655545813288 586.3058373967377 268.22240035408447Q589.263120978064 261.946387420381 591.0374911268598 255.90038543189175Q592.8118612756555 249.88724214986172 592.0889697335535 245.61561031016822L592.0889697335535 245.61561031016822Q593.271883166084 244.20268593242346 595.4076990859307 244.20268593242346L595.4076990859307 244.20268593242346Q597.7735259509917 244.20268593242346 601.4208423679609 246.20706702643346Q605.101017491389 248.2114481204435 605.101017491389 250.80728593071876L605.101017491389 250.80728593071876Q605.101017491389 251.30016652760648 604.6409956009605 251.760188418035L604.6409956009605 251.760188418035Q603.1952125167566 255.53893966084075 599.9093418708385 260.99348493306474Q596.5906125184614 266.4480302052887 592.2204045593902 272.3625973679412Q587.81733789386 278.2771645305937 583.5785647606258 283.10739438009324Q579.3069329209322 287.97048293605195 575.988203568555 290.336309801113L575.988203568555 290.336309801113ZM604.3781259492871 391.3439734566341L604.3781259492871 391.3439734566341Q600.1393528160528 391.3439734566341 600.1393528160528 387.7952331590426L600.1393528160528 387.7952331590426Q600.1393528160528 384.969384403553 604.0495388846953 382.965003309543Q607.9268662468786 380.92776350907377 613.5128463449392 379.51483913132904Q619.0659677365408 378.1019147535843 624.027632411877 377.37902321148226Q628.9892970872133 376.6889903758396 631.12511300706 376.4589794306253L631.12511300706 376.4589794306253Q632.3080264395905 375.27606599809474 633.0309179816926 373.73170679451323Q633.7209508173353 372.18734759093184 633.7209508173353 370.5444122679728L633.7209508173353 370.5444122679728Q633.7209508173353 368.6386072933403 632.6694722106415 367.3242590349731Q631.5851348974886 366.04276948306506 629.9421995745296 365.0898669957488L629.9421995745296 365.0898669957488Q625.670567734836 362.49402918547355 619.2959786817551 358.2223973457801Q612.921389628674 353.9836242125458 608.0583010727153 348.6605137661585Q603.1952125167566 343.3374033197713 603.1952125167566 337.652847102333L603.1952125167566 337.652847102333Q603.1952125167566 334.3341177499558 604.8710065461747 332.4283127753233L604.8710065461747 332.4283127753233Q609.109779679409 327.0066262095585 615.8786732100003 320.27059138542654Q622.6147080341323 313.50169785483524 630.5336562907947 308.6714680053357Q638.4526045474573 303.808379449377 645.7800960878546 303.808379449377L645.7800960878546 303.808379449377Q652.4175547926089 303.808379449377 653.8304791703538 305.94419536922373Q655.2434035480986 308.0800112890705 655.2434035480986 313.994578451723L655.2434035480986 313.994578451723Q655.2434035480986 318.003340639743 653.8304791703538 322.8664291957018Q652.4175547926089 327.6966590452013 647.9159120077013 329.60246401983375L647.9159120077013 329.60246401983375L647.4558901172728 329.60246401983375Q646.7329985751708 329.60246401983375 646.6344224557932 327.36807198060956Q646.5029876299566 325.100821234926 646.5029876299566 323.2278749667528L646.5029876299566 323.2278749667528Q646.5029876299566 321.7820918825488 646.5029876299566 318.9562431270592Q646.5029876299566 316.13039437156976 645.3200741974259 313.633132680672Q644.1371607648956 311.1358709897743 640.8184314125183 311.1358709897743L640.8184314125183 311.1358709897743Q637.4997020601411 311.1358709897743 633.0309179816926 313.1731107902435Q628.5292751967849 315.1774918842535 624.1590672377138 318.59479735600826Q619.7560005721836 322.04496153422224 616.9301518166941 325.82371277702805Q614.1043030612045 329.60246401983375 614.1043030612045 333.15120431742525L614.1043030612045 333.15120431742525Q614.1043030612045 339.06577148007773 618.4745110202755 343.07453366809784Q622.8447189793466 347.116154562577 628.759286141999 350.17201426328086Q634.6738533046515 353.26073267044376 639.0440612637226 356.5794620228211Q643.4142692227936 359.8981913751983 643.4142692227936 364.3669754536468L643.4142692227936 364.3669754536468Q643.4142692227936 367.6857048060241 641.7713338998345 370.64298838735033Q640.1283985768755 373.60027196867657 637.9925826570288 375.96609883373753L637.9925826570288 375.96609883373753Q640.3584095220898 375.73608788852334 642.8228125065283 375.60465306268657Q645.3200741974259 375.50607694330904 647.685901062487 375.50607694330904L647.685901062487 375.50607694330904Q649.8217169823338 375.50607694330904 649.8217169823338 376.6889903758396L649.8217169823338 376.6889903758396Q649.8217169823338 377.87190380837 649.0988254402318 378.233349579421Q648.408792604589 378.5619366440128 647.2258791720585 378.82480629568624L647.2258791720585 378.82480629568624Q643.677138874467 379.28482818611474 639.9969637510388 379.74485007654334Q636.3167886276105 380.237730673431 632.768048330019 380.92776350907377L632.768048330019 380.92776350907377Q626.1634483317238 386.84233067172636 619.7560005721836 389.1095814174098Q613.3814115191025 391.3439734566341 604.3781259492871 391.3439734566341Z " fill="white" transform="matrix(0.9592228632566571,0,0,0.9592228632566571,-3.82506817344796,-6.186539707878964)"/><path d="M704.9110984355624 394.2026803983342L704.9110984355624 394.2026803983342Q684.4866412182824 394.2026803983342 671.0909709754676 386.25983592494754Q657.6953007326529 378.31699145156097 651.233859792001 365.8353787076676Q644.7724188513491 353.3537659637743 644.7724188513491 340.21024951376546L644.7724188513491 340.21024951376546Q644.7724188513491 323.851772205481 650.4458791894824 307.8715255864054Q656.1193395276158 291.8597597432292 667.1195487387743 278.8108009655225Q678.1197579499328 265.76184218781583 694.0054468967062 257.9450746108322Q709.8911358434794 250.09678780974772 730.5677468535653 250.09678780974772L730.5677468535653 250.09678780974772Q745.3187437327119 250.09678780974772 754.8375494111357 254.41492151154918Q764.3563550895594 258.73305521335067 769.021200256469 265.6357652914129Q773.6860454233786 272.56999459357587 773.6860454233786 280.5128390669625L773.6860454233786 280.5128390669625Q773.6860454233786 289.14910647056547 770.597161461506 292.77381724215064Q767.5397967237342 296.3985280137358 763.6944513834438 296.3985280137358L763.6944513834438 296.3985280137358Q760.7316443179742 296.3985280137358 759.2502407852394 293.78243241337435Q757.8003564766053 291.16633681301283 757.8003564766053 289.14910647056547L757.8003564766053 289.14910647056547Q757.8003564766053 284.830972768764 759.3763176816424 282.78222320221585Q760.9522788866793 280.7334736356677 762.4336824194143 278.8108009655225Q763.915085952149 276.8881282953773 763.915085952149 273.01126373098623L763.915085952149 273.01126373098623Q763.915085952149 265.54120761911065 754.1441264809193 260.43509331479066Q744.4046862337905 255.32897901047068 728.9602664244276 255.32897901047068L728.9602664244276 255.32897901047068Q714.682057906792 255.32897901047068 701.5070222326824 261.002439348604Q688.3319865585728 266.67589968673735 678.2458348463358 277.4554743291906Q668.1596831340987 288.23504897164395 662.2340690031594 303.64794955690616Q656.3399740963209 319.09236936626917 656.3399740963209 338.3821345159224L656.3399740963209 338.3821345159224Q656.3399740963209 351.55717019003214 661.572165297044 363.12472543500394Q666.7728372736661 374.69228067997574 677.6784888125225 381.84714455084395Q688.5841403513787 389.00200842171205 705.6045213657787 389.00200842171205L705.6045213657787 389.00200842171205Q725.7768247902527 389.00200842171205 741.7885906334291 378.7897798130721Q757.8003564766053 368.5775512044321 768.4538542226557 352.6918622576587L768.4538542226557 352.6918622576587Q770.2819692204987 350.17032432959945 771.8579304255356 350.17032432959945L771.8579304255356 350.17032432959945Q773.2132570618675 350.17032432959945 773.2132570618675 351.77780475873726L773.2132570618675 351.77780475873726Q773.2132570618675 353.82655432528543 772.299199562946 355.4025155303224L772.299199562946 355.4025155303224Q760.7316443179742 375.82697274760244 743.8373401999771 385.0305861850187Q726.9115168578794 394.2026803983342 704.9110984355624 394.2026803983342ZM820.2084201960719 393.9820458296291L820.2084201960719 393.9820458296291Q817.6868822680126 393.9820458296291 816.8043439931919 390.577969626749Q815.8902864942704 387.173893423869 815.7642095978674 383.2024711871758Q815.6696519255652 379.23104895048243 815.4174981327593 377.8757223141505L815.4174981327593 377.8757223141505Q812.9274794288008 360.3825529382394 810.5635376212452 343.36217192383947Q808.168076589589 326.3417909094395 806.6866730568541 307.3041795525921Q805.2052695241193 288.23504897164395 805.2052695241193 264.6271501201892L805.2052695241193 264.6271501201892Q805.2052695241193 260.0883818496825 805.3313464205223 256.8103825432055Q805.4574233169252 253.50086401262772 805.6780578856304 251.0108453086692L805.6780578856304 251.0108453086692Q805.8986924543356 249.87615324104252 806.6866730568541 249.5294417759344Q807.4746536593726 249.18273031082623 808.168076589589 249.18273031082623L808.168076589589 249.18273031082623Q809.9961915874319 249.18273031082623 812.9274794288008 250.44349927485587Q815.8902864942704 251.70426823888548 815.8902864942704 253.97365237413885L815.8902864942704 253.97365237413885Q815.6696519255652 257.598363145724 815.6696519255652 261.2230739173092Q815.6696519255652 264.84778468889436 815.6696519255652 268.7246492532855L815.6696519255652 268.7246492532855Q815.6696519255652 295.7051050835195 818.0335937331208 324.0724067741862Q820.4290547647771 352.43970846485286 824.7471884665786 377.4029339526394L824.7471884665786 377.4029339526394Q829.9478604432007 372.2022619760172 836.4093013838526 364.2594175026305Q842.9022615486051 356.31657302924395 849.9310485230703 347.23903648823057Q856.9598354975356 338.1614999472173 863.4212764381874 329.0839634062039Q869.8827173788393 320.00642686519063 875.1149085795622 312.1581400641062Q880.3470997802851 304.3413724871225 883.0577530529489 299.1091812863995L883.0577530529489 299.1091812863995Q885.7684063256125 294.1291438784825 889.4246363212985 287.3209914727225Q893.0493470928836 280.5128390669625 896.5479809680659 273.7046866612025Q900.0781340673489 266.8965342554425 902.7887873400125 261.66434305471955Q905.530959836777 256.4636710780974 906.4450173356985 254.6355560802544L906.4450173356985 254.6355560802544Q909.1556706083622 249.43488410363216 911.0783432785074 246.8187885032707Q913.0010159486526 244.2026929029092 914.6084963777903 244.2026929029092L914.6084963777903 244.2026929029092Q916.1844575828272 244.2026929029092 916.1844575828272 246.9133461755729L916.1844575828272 246.9133461755729Q916.1844575828272 249.65551867233734 914.6084963777903 253.97365237413885L914.6084963777903 253.97365237413885Q907.5797094033251 273.2634175237921 894.9720197630288 294.00306698207953Q882.3643301227326 314.7742356644677 867.0459872097726 335.1041352094454Q851.7276442968126 355.4025155303224 836.0941091428452 373.7782231810543L836.0941091428452 373.7782231810543Q833.1313020773756 377.18229938393426 830.6412833734171 380.23966412170614Q828.1512646694586 383.32854808357865 827.8991108766527 383.769817220989L827.8991108766527 383.769817220989Q826.3231496716155 387.39452799257424 825.8818805342053 389.3172006627194Q825.409092172694 391.27139255696534 821.5637468324037 393.76141126092386L821.5637468324037 393.76141126092386Q821.3431122636986 393.9820458296291 820.7757662298852 393.9820458296291Q820.2084201960719 393.9820458296291 820.2084201960719 393.9820458296291Z " fill="white" transform="matrix(0.9592228632566571,0,0,0.9592228632566571,-3.82506817344796,-6.186539707878964)"/></g></svg>